<mxfile modified="2020-12-04T09:01:35.882Z" host="app.diagrams.net" agent="5.0 (Windows)" etag="3hrs2PDvucCmnkr305kZ" version="13.8.8" type="github">
  <diagram id="l8hXMBHkgcEJcSW0mbfh" name="Page-1">
    <mxGraphModel dx="1828" dy="1152" grid="1" gridSize="10" guides="1" tooltips="1" connect="1" arrows="1" fold="1" page="1" pageScale="1" pageWidth="1169" pageHeight="827" math="0" shadow="0">
      <root>
        <mxCell id="0" />
        <mxCell id="1" parent="0" />
        <mxCell id="sbkNDW27fsJ_bzNoNkE7-103" value="AnaSys Data Center" style="shape=corner;whiteSpace=wrap;html=1;fillColor=#f5f5f5;fontSize=12;align=left;direction=south;dx=310;dy=460;dashed=1;dashPattern=1 2;verticalAlign=top;spacingTop=-23;strokeColor=#666666;fontColor=#333333;" parent="1" vertex="1">
          <mxGeometry x="170" y="150" width="960" height="550" as="geometry" />
        </mxCell>
        <mxCell id="sbkNDW27fsJ_bzNoNkE7-48" value="&lt;div&gt;Windows Services&lt;/div&gt;" style="rounded=0;whiteSpace=wrap;html=1;dashed=1;fillColor=none;verticalAlign=bottom;spacingTop=0;spacing=1;align=left;spacingLeft=4;" parent="1" vertex="1">
          <mxGeometry x="730" y="160" width="380" height="520" as="geometry" />
        </mxCell>
        <mxCell id="sbkNDW27fsJ_bzNoNkE7-128" style="edgeStyle=orthogonalEdgeStyle;rounded=0;orthogonalLoop=1;jettySize=auto;html=1;exitX=1;exitY=0.5;exitDx=0;exitDy=0;exitPerimeter=0;endArrow=none;endFill=0;fontSize=12;startArrow=classic;startFill=1;" parent="1" source="sbkNDW27fsJ_bzNoNkE7-2" target="sbkNDW27fsJ_bzNoNkE7-48" edge="1">
          <mxGeometry relative="1" as="geometry" />
        </mxCell>
        <mxCell id="sbkNDW27fsJ_bzNoNkE7-2" value="&lt;div align=&quot;center&quot;&gt;DataBase&lt;/div&gt;&lt;div align=&quot;left&quot;&gt;&lt;br&gt;&lt;/div&gt;&lt;div align=&quot;left&quot;&gt;- SQLServer&lt;/div&gt;&lt;div align=&quot;left&quot;&gt;- Oracle&lt;br&gt;&lt;/div&gt;" style="shape=cylinder3;whiteSpace=wrap;html=1;boundedLbl=1;backgroundOutline=1;size=15;fontStyle=1;align=left;spacingLeft=9;" parent="1" vertex="1">
          <mxGeometry x="520" y="265" width="90" height="110" as="geometry" />
        </mxCell>
        <mxCell id="sbkNDW27fsJ_bzNoNkE7-3" value="Application Server (IIS)" style="swimlane;html=1;startSize=20;horizontal=1;containerType=tree;fillColor=#dae8fc;strokeColor=#6c8ebf;" parent="1" vertex="1">
          <mxGeometry x="190" y="170" width="220" height="270" as="geometry">
            <mxRectangle x="190" y="210" width="160" height="20" as="alternateBounds" />
          </mxGeometry>
        </mxCell>
        <mxCell id="sbkNDW27fsJ_bzNoNkE7-12" style="edgeStyle=orthogonalEdgeStyle;rounded=0;orthogonalLoop=1;jettySize=auto;html=1;exitX=0.5;exitY=0;exitDx=0;exitDy=0;entryX=0.5;entryY=1;entryDx=0;entryDy=0;" parent="sbkNDW27fsJ_bzNoNkE7-3" source="sbkNDW27fsJ_bzNoNkE7-5" target="sbkNDW27fsJ_bzNoNkE7-11" edge="1">
          <mxGeometry relative="1" as="geometry" />
        </mxCell>
        <mxCell id="sbkNDW27fsJ_bzNoNkE7-5" value="MMWebClient" style="whiteSpace=wrap;html=1;treeFolding=1;treeMoving=1;newEdgeStyle={&quot;edgeStyle&quot;:&quot;elbowEdgeStyle&quot;,&quot;startArrow&quot;:&quot;none&quot;,&quot;endArrow&quot;:&quot;none&quot;};" parent="sbkNDW27fsJ_bzNoNkE7-3" vertex="1">
          <mxGeometry x="50" y="130" width="120" height="40" as="geometry" />
        </mxCell>
        <mxCell id="sbkNDW27fsJ_bzNoNkE7-11" value="ComplianceFilter" style="whiteSpace=wrap;html=1;treeFolding=1;treeMoving=1;newEdgeStyle={&quot;edgeStyle&quot;:&quot;elbowEdgeStyle&quot;,&quot;startArrow&quot;:&quot;none&quot;,&quot;endArrow&quot;:&quot;none&quot;};" parent="sbkNDW27fsJ_bzNoNkE7-3" vertex="1">
          <mxGeometry x="50" y="50" width="120" height="40" as="geometry" />
        </mxCell>
        <mxCell id="sbkNDW27fsJ_bzNoNkE7-10" value="MMWebService" style="whiteSpace=wrap;html=1;treeFolding=1;treeMoving=1;newEdgeStyle={&quot;edgeStyle&quot;:&quot;elbowEdgeStyle&quot;,&quot;startArrow&quot;:&quot;none&quot;,&quot;endArrow&quot;:&quot;none&quot;};" parent="sbkNDW27fsJ_bzNoNkE7-3" vertex="1">
          <mxGeometry x="50" y="204" width="120" height="40" as="geometry" />
        </mxCell>
        <mxCell id="sbkNDW27fsJ_bzNoNkE7-67" value="WebServices" style="text;html=1;align=center;verticalAlign=middle;resizable=0;points=[];autosize=1;" parent="sbkNDW27fsJ_bzNoNkE7-3" vertex="1">
          <mxGeometry y="250" width="90" height="20" as="geometry" />
        </mxCell>
        <mxCell id="sbkNDW27fsJ_bzNoNkE7-9" style="edgeStyle=orthogonalEdgeStyle;rounded=0;orthogonalLoop=1;jettySize=auto;html=1;entryX=0;entryY=0.5;entryDx=0;entryDy=0;entryPerimeter=0;" parent="1" source="sbkNDW27fsJ_bzNoNkE7-5" target="sbkNDW27fsJ_bzNoNkE7-2" edge="1">
          <mxGeometry relative="1" as="geometry">
            <mxPoint x="290" y="330" as="targetPoint" />
          </mxGeometry>
        </mxCell>
        <mxCell id="sbkNDW27fsJ_bzNoNkE7-13" style="edgeStyle=orthogonalEdgeStyle;rounded=0;orthogonalLoop=1;jettySize=auto;html=1;entryX=0;entryY=0;entryDx=0;entryDy=35;entryPerimeter=0;exitX=1;exitY=0.75;exitDx=0;exitDy=0;" parent="1" source="sbkNDW27fsJ_bzNoNkE7-11" target="sbkNDW27fsJ_bzNoNkE7-2" edge="1">
          <mxGeometry relative="1" as="geometry">
            <mxPoint x="540" y="298" as="targetPoint" />
          </mxGeometry>
        </mxCell>
        <mxCell id="sbkNDW27fsJ_bzNoNkE7-14" style="edgeStyle=orthogonalEdgeStyle;rounded=0;orthogonalLoop=1;jettySize=auto;html=1;entryX=0;entryY=0;entryDx=0;entryDy=75;entryPerimeter=0;" parent="1" source="sbkNDW27fsJ_bzNoNkE7-10" target="sbkNDW27fsJ_bzNoNkE7-2" edge="1">
          <mxGeometry relative="1" as="geometry" />
        </mxCell>
        <mxCell id="sbkNDW27fsJ_bzNoNkE7-74" style="edgeStyle=orthogonalEdgeStyle;rounded=0;orthogonalLoop=1;jettySize=auto;html=1;entryX=0.5;entryY=0;entryDx=0;entryDy=0;endArrow=classic;endFill=1;fontSize=12;" parent="1" source="sbkNDW27fsJ_bzNoNkE7-20" target="sbkNDW27fsJ_bzNoNkE7-24" edge="1">
          <mxGeometry relative="1" as="geometry" />
        </mxCell>
        <mxCell id="sbkNDW27fsJ_bzNoNkE7-20" value="User" style="shape=umlActor;verticalLabelPosition=bottom;verticalAlign=top;html=1;outlineConnect=0;horizontal=1;spacingTop=-85;" parent="1" vertex="1">
          <mxGeometry x="65" y="170" width="30" height="60" as="geometry" />
        </mxCell>
        <mxCell id="sbkNDW27fsJ_bzNoNkE7-28" style="edgeStyle=orthogonalEdgeStyle;rounded=0;orthogonalLoop=1;jettySize=auto;html=1;entryX=0;entryY=0.5;entryDx=0;entryDy=0;" parent="1" source="sbkNDW27fsJ_bzNoNkE7-24" target="sbkNDW27fsJ_bzNoNkE7-5" edge="1">
          <mxGeometry relative="1" as="geometry" />
        </mxCell>
        <mxCell id="sbkNDW27fsJ_bzNoNkE7-24" value="Browser" style="swimlane;html=1;startSize=20;horizontal=1;containerType=tree;" parent="1" vertex="1">
          <mxGeometry x="40" y="290" width="80" height="60" as="geometry" />
        </mxCell>
        <mxCell id="sbkNDW27fsJ_bzNoNkE7-94" style="edgeStyle=orthogonalEdgeStyle;rounded=0;orthogonalLoop=1;jettySize=auto;html=1;exitX=0;exitY=0.5;exitDx=0;exitDy=0;entryX=1;entryY=0.25;entryDx=0;entryDy=0;endArrow=classic;endFill=1;fontSize=12;" parent="1" source="sbkNDW27fsJ_bzNoNkE7-47" target="sbkNDW27fsJ_bzNoNkE7-11" edge="1">
          <mxGeometry relative="1" as="geometry">
            <Array as="points">
              <mxPoint x="680" y="200" />
              <mxPoint x="680" y="230" />
            </Array>
          </mxGeometry>
        </mxCell>
        <mxCell id="sbkNDW27fsJ_bzNoNkE7-47" value="&lt;div&gt;Compliance&lt;/div&gt;&lt;div&gt;ListImport&lt;br&gt;&lt;/div&gt;" style="label;whiteSpace=wrap;html=1;image=img/clipart/Gear_128x128.png;fillColor=none;align=left;fontStyle=0" parent="1" vertex="1">
          <mxGeometry x="750" y="170" width="140" height="60" as="geometry" />
        </mxCell>
        <mxCell id="sbkNDW27fsJ_bzNoNkE7-102" style="edgeStyle=orthogonalEdgeStyle;rounded=0;orthogonalLoop=1;jettySize=auto;html=1;exitX=0;exitY=0.25;exitDx=0;exitDy=0;entryX=1;entryY=0.25;entryDx=0;entryDy=0;endArrow=classic;endFill=1;fontSize=12;" parent="1" source="sbkNDW27fsJ_bzNoNkE7-62" target="sbkNDW27fsJ_bzNoNkE7-11" edge="1">
          <mxGeometry relative="1" as="geometry">
            <Array as="points">
              <mxPoint x="680" y="255" />
              <mxPoint x="680" y="230" />
            </Array>
          </mxGeometry>
        </mxCell>
        <mxCell id="sbkNDW27fsJ_bzNoNkE7-62" value="&lt;div&gt;Compliance&lt;/div&gt;&lt;div&gt;WinService&lt;br&gt;&lt;/div&gt;" style="label;whiteSpace=wrap;html=1;image=img/clipart/Gear_128x128.png;fillColor=none;align=left;fontStyle=0" parent="1" vertex="1">
          <mxGeometry x="750" y="240" width="140" height="60" as="geometry" />
        </mxCell>
        <mxCell id="sbkNDW27fsJ_bzNoNkE7-65" value="TargetServer" style="label;whiteSpace=wrap;html=1;image=img/clipart/Gear_128x128.png;fillColor=none;align=left;fontStyle=0" parent="1" vertex="1">
          <mxGeometry x="750" y="310" width="140" height="60" as="geometry" />
        </mxCell>
        <mxCell id="sbkNDW27fsJ_bzNoNkE7-69" value="&lt;div&gt;SWIFT&lt;/div&gt;" style="ellipse;shape=cloud;whiteSpace=wrap;html=1;fillColor=none;align=center;" parent="1" vertex="1">
          <mxGeometry x="505" y="480" width="120" height="70" as="geometry" />
        </mxCell>
        <mxCell id="sbkNDW27fsJ_bzNoNkE7-70" value="SIC" style="ellipse;shape=cloud;whiteSpace=wrap;html=1;fillColor=none;align=center;" parent="1" vertex="1">
          <mxGeometry x="505" y="570" width="120" height="70" as="geometry" />
        </mxCell>
        <mxCell id="sbkNDW27fsJ_bzNoNkE7-71" value="SECOM" style="ellipse;shape=cloud;whiteSpace=wrap;html=1;fillColor=none;align=center;" parent="1" vertex="1">
          <mxGeometry x="505" y="650" width="120" height="70" as="geometry" />
        </mxCell>
        <mxCell id="sbkNDW27fsJ_bzNoNkE7-72" value="Message Manager Architecture" style="text;html=1;strokeColor=none;fillColor=none;align=left;verticalAlign=middle;whiteSpace=wrap;rounded=0;fontStyle=1;fontSize=22;" parent="1" vertex="1">
          <mxGeometry x="40" y="50" width="400" height="50" as="geometry" />
        </mxCell>
        <mxCell id="sbkNDW27fsJ_bzNoNkE7-73" value="extjs 3.4" style="text;html=1;align=center;verticalAlign=middle;resizable=0;points=[];autosize=1;fontSize=12;" parent="1" vertex="1">
          <mxGeometry x="40" y="320" width="60" height="20" as="geometry" />
        </mxCell>
        <mxCell id="sbkNDW27fsJ_bzNoNkE7-88" value="AutoOperator" style="label;whiteSpace=wrap;html=1;image=img/clipart/Gear_128x128.png;fillColor=none;align=left;fontStyle=0" parent="1" vertex="1">
          <mxGeometry x="750" y="380" width="140" height="60" as="geometry" />
        </mxCell>
        <mxCell id="sbkNDW27fsJ_bzNoNkE7-129" style="edgeStyle=orthogonalEdgeStyle;rounded=0;orthogonalLoop=1;jettySize=auto;html=1;exitX=0.5;exitY=0;exitDx=0;exitDy=0;entryX=0.5;entryY=1;entryDx=0;entryDy=0;startArrow=none;startFill=0;endArrow=classic;endFill=1;fontSize=12;" parent="1" source="sbkNDW27fsJ_bzNoNkE7-43" target="sbkNDW27fsJ_bzNoNkE7-10" edge="1">
          <mxGeometry relative="1" as="geometry" />
        </mxCell>
        <mxCell id="sbkNDW27fsJ_bzNoNkE7-43" value="WebConsumers (installed at customer side)" style="rounded=0;whiteSpace=wrap;html=1;dashed=1;fillColor=none;verticalAlign=bottom;spacingTop=0;spacing=0;align=left;spacingLeft=4;" parent="1" vertex="1">
          <mxGeometry x="130" y="480" width="340" height="230" as="geometry" />
        </mxCell>
        <mxCell id="sbkNDW27fsJ_bzNoNkE7-29" value="awc.hostlink.db" style="html=1;whiteSpace=wrap;container=1;recursiveResize=0;collapsible=0;spacingLeft=0;" parent="1" vertex="1">
          <mxGeometry x="140" y="540" width="120" height="40" as="geometry" />
        </mxCell>
        <mxCell id="sbkNDW27fsJ_bzNoNkE7-39" value="&lt;div&gt;awc.hostlink.ebs&lt;/div&gt;" style="html=1;whiteSpace=wrap;container=1;recursiveResize=0;collapsible=0;spacingLeft=0;" parent="1" vertex="1">
          <mxGeometry x="140" y="590" width="120" height="40" as="geometry" />
        </mxCell>
        <mxCell id="sbkNDW27fsJ_bzNoNkE7-44" value="awc.hostlink.file" style="html=1;whiteSpace=wrap;container=1;recursiveResize=0;collapsible=0;spacingLeft=0;" parent="1" vertex="1">
          <mxGeometry x="140" y="640" width="120" height="40" as="geometry" />
        </mxCell>
        <mxCell id="sbkNDW27fsJ_bzNoNkE7-52" value="awc.hostlink.isys" style="html=1;whiteSpace=wrap;container=1;recursiveResize=0;collapsible=0;spacingLeft=0;" parent="1" vertex="1">
          <mxGeometry x="340" y="540" width="120" height="40" as="geometry" />
        </mxCell>
        <mxCell id="sbkNDW27fsJ_bzNoNkE7-54" value="awc.hostlink.mq" style="html=1;whiteSpace=wrap;container=1;recursiveResize=0;collapsible=0;spacingLeft=0;" parent="1" vertex="1">
          <mxGeometry x="340" y="590" width="120" height="40" as="geometry" />
        </mxCell>
        <mxCell id="sbkNDW27fsJ_bzNoNkE7-56" value="awc.hostlink.mqx" style="html=1;whiteSpace=wrap;container=1;recursiveResize=0;collapsible=0;spacingLeft=0;" parent="1" vertex="1">
          <mxGeometry x="340" y="640" width="120" height="40" as="geometry" />
        </mxCell>
        <mxCell id="sbkNDW27fsJ_bzNoNkE7-89" value="awc.print" style="html=1;whiteSpace=wrap;container=1;recursiveResize=0;collapsible=0;spacingLeft=0;" parent="1" vertex="1">
          <mxGeometry x="140" y="490" width="120" height="40" as="geometry" />
        </mxCell>
        <mxCell id="sbkNDW27fsJ_bzNoNkE7-90" value="awc.hostlink.eurex" style="html=1;whiteSpace=wrap;container=1;recursiveResize=0;collapsible=0;spacingLeft=0;" parent="1" vertex="1">
          <mxGeometry x="340" y="490" width="120" height="40" as="geometry" />
        </mxCell>
        <mxCell id="sbkNDW27fsJ_bzNoNkE7-109" style="edgeStyle=orthogonalEdgeStyle;rounded=0;orthogonalLoop=1;jettySize=auto;html=1;exitX=0;exitY=0.75;exitDx=0;exitDy=0;endArrow=classic;endFill=1;fontSize=12;entryX=0.875;entryY=0.5;entryDx=0;entryDy=0;entryPerimeter=0;" parent="1" source="sbkNDW27fsJ_bzNoNkE7-91" target="sbkNDW27fsJ_bzNoNkE7-69" edge="1">
          <mxGeometry relative="1" as="geometry">
            <mxPoint x="660" y="500" as="targetPoint" />
            <Array as="points">
              <mxPoint x="710" y="495" />
              <mxPoint x="710" y="515" />
            </Array>
          </mxGeometry>
        </mxCell>
        <mxCell id="sbkNDW27fsJ_bzNoNkE7-91" value="&lt;div&gt;amm.server.&lt;/div&gt;&lt;div&gt;iafa&lt;br&gt;&lt;/div&gt;" style="label;whiteSpace=wrap;html=1;image=img/clipart/Gear_128x128.png;fillColor=none;align=left;fontStyle=0" parent="1" vertex="1">
          <mxGeometry x="750" y="450" width="140" height="60" as="geometry" />
        </mxCell>
        <mxCell id="sbkNDW27fsJ_bzNoNkE7-108" style="edgeStyle=orthogonalEdgeStyle;rounded=0;orthogonalLoop=1;jettySize=auto;html=1;exitX=0;exitY=0.25;exitDx=0;exitDy=0;entryX=0.875;entryY=0.5;entryDx=0;entryDy=0;entryPerimeter=0;endArrow=classic;endFill=1;fontSize=12;" parent="1" source="sbkNDW27fsJ_bzNoNkE7-92" target="sbkNDW27fsJ_bzNoNkE7-69" edge="1">
          <mxGeometry relative="1" as="geometry">
            <Array as="points">
              <mxPoint x="710" y="535" />
              <mxPoint x="710" y="515" />
            </Array>
          </mxGeometry>
        </mxCell>
        <mxCell id="sbkNDW27fsJ_bzNoNkE7-92" value="&lt;div&gt;amm.server.&lt;/div&gt;&lt;div&gt;swift&lt;/div&gt;" style="label;whiteSpace=wrap;html=1;image=img/clipart/Gear_128x128.png;fillColor=none;align=left;fontStyle=0" parent="1" vertex="1">
          <mxGeometry x="750" y="520" width="140" height="60" as="geometry" />
        </mxCell>
        <mxCell id="sbkNDW27fsJ_bzNoNkE7-106" style="edgeStyle=orthogonalEdgeStyle;rounded=0;orthogonalLoop=1;jettySize=auto;html=1;exitX=0;exitY=0.25;exitDx=0;exitDy=0;entryX=0.875;entryY=0.5;entryDx=0;entryDy=0;entryPerimeter=0;endArrow=classic;endFill=1;fontSize=12;" parent="1" source="sbkNDW27fsJ_bzNoNkE7-93" target="sbkNDW27fsJ_bzNoNkE7-70" edge="1">
          <mxGeometry relative="1" as="geometry" />
        </mxCell>
        <mxCell id="sbkNDW27fsJ_bzNoNkE7-107" style="edgeStyle=orthogonalEdgeStyle;rounded=0;orthogonalLoop=1;jettySize=auto;html=1;exitX=0;exitY=0.75;exitDx=0;exitDy=0;entryX=0.875;entryY=0.5;entryDx=0;entryDy=0;entryPerimeter=0;endArrow=classic;endFill=1;fontSize=12;" parent="1" source="sbkNDW27fsJ_bzNoNkE7-93" target="sbkNDW27fsJ_bzNoNkE7-71" edge="1">
          <mxGeometry relative="1" as="geometry">
            <Array as="points">
              <mxPoint x="680" y="635" />
              <mxPoint x="680" y="685" />
            </Array>
          </mxGeometry>
        </mxCell>
        <mxCell id="sbkNDW27fsJ_bzNoNkE7-93" value="&lt;div&gt;amm.server.&lt;/div&gt;&lt;div&gt;six.nms&lt;br&gt;&lt;/div&gt;" style="label;whiteSpace=wrap;html=1;image=img/clipart/Gear_128x128.png;fillColor=none;align=left;fontStyle=0" parent="1" vertex="1">
          <mxGeometry x="750" y="590" width="140" height="60" as="geometry" />
        </mxCell>
        <mxCell id="sbkNDW27fsJ_bzNoNkE7-104" value="Transformation" style="label;whiteSpace=wrap;html=1;image=img/clipart/Gear_128x128.png;fillColor=none;align=left;fontStyle=0" parent="1" vertex="1">
          <mxGeometry x="950" y="240" width="140" height="60" as="geometry" />
        </mxCell>
        <mxCell id="sbkNDW27fsJ_bzNoNkE7-105" value="Sentinel" style="label;whiteSpace=wrap;html=1;image=img/clipart/Gear_128x128.png;fillColor=none;align=left;fontStyle=0" parent="1" vertex="1">
          <mxGeometry x="950" y="170" width="140" height="60" as="geometry" />
        </mxCell>
        <mxCell id="sbkNDW27fsJ_bzNoNkE7-110" value="&lt;div&gt;FileAct&lt;/div&gt;&lt;div&gt;Debulker&lt;/div&gt;" style="label;whiteSpace=wrap;html=1;image=img/clipart/Gear_128x128.png;fillColor=none;align=left;fontStyle=0" parent="1" vertex="1">
          <mxGeometry x="950" y="310" width="140" height="60" as="geometry" />
        </mxCell>
        <mxCell id="sbkNDW27fsJ_bzNoNkE7-111" value="&lt;div&gt;Pain&lt;/div&gt;&lt;div&gt;Debulker&lt;/div&gt;" style="label;whiteSpace=wrap;html=1;image=img/clipart/Gear_128x128.png;fillColor=none;align=left;fontStyle=0" parent="1" vertex="1">
          <mxGeometry x="950" y="380" width="140" height="60" as="geometry" />
        </mxCell>
        <mxCell id="sbkNDW27fsJ_bzNoNkE7-112" value="&lt;div&gt;Report&lt;/div&gt;&lt;div&gt;Service&lt;br&gt;&lt;/div&gt;" style="label;whiteSpace=wrap;html=1;image=img/clipart/Gear_128x128.png;fillColor=none;align=left;fontStyle=0" parent="1" vertex="1">
          <mxGeometry x="950" y="450" width="140" height="60" as="geometry" />
        </mxCell>
        <mxCell id="sbkNDW27fsJ_bzNoNkE7-116" value="&lt;div&gt;MongoDB&lt;/div&gt;&lt;div&gt;Synchronizer&lt;br&gt;&lt;/div&gt;" style="label;whiteSpace=wrap;html=1;image=img/clipart/Gear_128x128.png;fillColor=none;align=left;fontStyle=0" parent="1" vertex="1">
          <mxGeometry x="950" y="520" width="140" height="60" as="geometry" />
        </mxCell>
        <mxCell id="sbkNDW27fsJ_bzNoNkE7-117" value="&lt;div&gt;amm.server.&lt;/div&gt;&lt;div&gt;snlgw&lt;br&gt;&lt;/div&gt;" style="label;whiteSpace=wrap;html=1;image=img/clipart/Gear_128x128.png;fillColor=none;align=left;fontStyle=0" parent="1" vertex="1">
          <mxGeometry x="950" y="590" width="140" height="60" as="geometry" />
        </mxCell>
      </root>
    </mxGraphModel>
  </diagram>
</mxfile>
